<?xml version="1.0" encoding="UTF-8"?>
<svg xmlns="http://www.w3.org/2000/svg" xmlns:xlink="http://www.w3.org/1999/xlink" width="1144" height="784" viewBox="-52 -732 1144 784">
<defs>
<style type="text/css">
.l235d4 {stroke: #0067A5; fill: #0067A5; fill-opacity: 0.5;}
.l71d20 {stroke: #B3446C; fill: #B3446C; fill-opacity: 0.5;}
</style>
</defs>
<rect x="-52" y="-732" width="1144" height="784" fill="#222222" stroke="none"/>
<g id="my_logo" transform="scale(1 -1)">
<polygon id="0x1ab2dc90" class="l71d20" points="0,680 0,622.2 20.4,622.2 20.4,659.6 23.8,659.6 23.8,622.2 44.2,622.2 44.2,659.6 295.8,659.6 295.8,622.2 170,622.2 170,612 159.8,612 159.8,588.2 78.2,588.2 78.2,612 68,612 68,622.2 44.2,622.2 23.8,622.2 20.4,622.2 0,622.2 0,554.2 20.4,554.2 20.4,601.8 57.8,601.8 57.8,588.2 34,588.2 34,578 23.8,578 23.8,554.2 20.4,554.2 0,554.2 0,520.2 20.4,520.2 20.4,533.8 34,533.8 34,544 44.2,544 44.2,567.8 91.8,567.8 91.8,554.2 68,554.2 68,544 57.8,544 57.8,520.2 20.4,520.2 0,520.2 0,452.2 20.4,452.2 20.4,499.8 57.8,499.8 57.8,452.2 78.2,452.2 78.2,533.8 102,533.8 102,544 112.2,544 112.2,567.8 170,567.8 170,578 180.2,578 180.2,601.8 261.8,601.8 261.8,520.2 204,520.2 204,510 193.8,510 193.8,486.2 136,486.2 136,476 125.8,476 125.8,452.2 78.2,452.2 57.8,452.2 20.4,452.2 0,452.2 0,384.2 20.4,384.2 20.4,431.8 91.8,431.8 91.8,418.2 68,418.2 68,408 57.8,408 57.8,384.2 20.4,384.2 0,384.2 0,350.2 20.4,350.2 20.4,363.8 68,363.8 68,374 78.2,374 78.2,397.8 91.8,397.8 91.8,350.2 112.2,350.2 112.2,431.8 136,431.8 136,442 146.2,442 146.2,465.8 204,465.8 204,476 214.2,476 214.2,499.8 261.8,499.8 261.8,418.2 282.2,418.2 282.2,601.8 306,601.8 306,612 316.2,612 316.2,659.6 397.8,659.6 397.8,554.2 418.2,554.2 418.2,659.6 533.8,659.6 533.8,622.2 554.2,622.2 554.2,659.6 1019.6,659.6 1019.6,350.2 928.2,350.2 928.2,374 918,374 918,384.2 826.2,384.2 826.2,408 816,408 816,418.2 724.2,418.2 724.2,442 714,442 714,452.2 656.2,452.2 656.2,476 646,476 646,486.2 622.2,486.2 622.2,544 612,544 612,554.2 588.2,554.2 588.2,612 578,612 578,622.2 554.2,622.2 533.8,622.2 533.8,612 544,612 544,601.8 567.8,601.8 567.8,588.2 544,588.2 544,578 533.8,578 533.8,486.2 510,486.2 510,476 499.8,476 499.8,418.2 476,418.2 476,408 465.8,408 465.8,350.2 486.2,350.2 486.2,397.8 510,397.8 510,408 520.2,408 520.2,465.8 544,465.8 544,476 554.2,476 554.2,567.8 567.8,567.8 567.8,544 578,544 578,533.8 601.8,533.8 601.8,476 612,476 612,465.8 635.8,465.8 635.8,452.2 612,452.2 612,442 601.8,442 601.8,316.2 622.2,316.2 622.2,431.8 703.8,431.8 703.8,408 714,408 714,397.8 805.8,397.8 805.8,374 816,374 816,363.8 907.8,363.8 907.8,350.2 850,350.2 850,340 839.8,340 839.8,316.2 748,316.2 748,306 737.8,306 737.8,282.2 656.2,282.2 656.2,306 646,306 646,316.2 622.2,316.2 601.8,316.2 520.2,316.2 520.2,340 510,340 510,350.2 486.2,350.2 465.8,350.2 452.2,350.2 452.2,544 442,544 442,554.2 418.2,554.2 397.8,554.2 397.8,544 408,544 408,533.8 431.8,533.8 431.8,316.2 384.2,316.2 384.2,340 374,340 374,350.2 350.2,350.2 350.2,374 340,374 340,384.2 316.2,384.2 316.2,408 306,408 306,418.2 282.2,418.2 261.8,418.2 238,418.2 238,408 227.8,408 227.8,384.2 204,384.2 204,374 193.8,374 193.8,350.2 112.2,350.2 91.8,350.2 68,350.2 68,340 57.8,340 57.8,316.2 44.2,316.2 44.2,340 34,340 34,350.2 20.4,350.2 0,350.2 0,282.2 20.4,282.2 20.4,329.8 23.8,329.8 23.8,282.2 44.2,282.2 44.2,295.8 68,295.8 68,306 78.2,306 78.2,329.8 159.8,329.8 159.8,282.2 180.2,282.2 180.2,329.8 204,329.8 204,340 214.2,340 214.2,363.8 238,363.8 238,374 248.2,374 248.2,397.8 295.8,397.8 295.8,374 306,374 306,363.8 329.8,363.8 329.8,340 340,340 340,329.8 363.8,329.8 363.8,306 374,306 374,295.8 397.8,295.8 397.8,282.2 374,282.2 374,272 363.8,272 363.8,248.2 316.2,248.2 316.2,272 306,272 306,282.2 180.2,282.2 159.8,282.2 159.8,248.2 78.2,248.2 78.2,272 68,272 68,282.2 20.4,282.2 0,282.2 0,248.2 20.4,248.2 20.4,261.8 57.8,261.8 57.8,238 68,238 68,227.8 91.8,227.8 91.8,214.2 44.2,214.2 44.2,238 34,238 34,248.2 20.4,248.2 0,248.2 0,180.2 20.4,180.2 20.4,227.8 23.8,227.8 23.8,204 34,204 34,193.8 57.8,193.8 57.8,180.2 20.4,180.2 0,180.2 0,146.2 20.4,146.2 20.4,159.8 57.8,159.8 57.8,146.2 78.2,146.2 78.2,193.8 102,193.8 102,204 112.2,204 112.2,227.8 159.8,227.8 159.8,180.2 180.2,180.2 180.2,261.8 295.8,261.8 295.8,238 306,238 306,227.8 363.8,227.8 363.8,214.2 384.2,214.2 384.2,261.8 408,261.8 408,272 418.2,272 418.2,295.8 442,295.8 442,306 452.2,306 452.2,329.8 499.8,329.8 499.8,306 510,306 510,295.8 601.8,295.8 601.8,214.2 578,214.2 578,204 567.8,204 567.8,146.2 588.2,146.2 588.2,193.8 612,193.8 612,204 622.2,204 622.2,295.8 635.8,295.8 635.8,272 646,272 646,261.8 703.8,261.8 703.8,214.2 680,214.2 680,204 669.8,204 669.8,180.2 690.2,180.2 690.2,193.8 714,193.8 714,204 724.2,204 724.2,261.8 748,261.8 748,272 758.2,272 758.2,295.8 850,295.8 850,306 860.2,306 860.2,329.8 1019.6,329.8 1019.6,44.2 996.2,44.2 996.2,68 986,68 986,78.2 928.2,78.2 928.2,102 918,102 918,112.2 826.2,112.2 826.2,136 816,136 816,146.2 758.2,146.2 758.2,170 748,170 748,180.2 690.2,180.2 669.8,180.2 646,180.2 646,170 635.8,170 635.8,146.2 588.2,146.2 567.8,146.2 544,146.2 544,136 533.8,136 533.8,112.2 476,112.2 476,102 465.8,102 465.8,78.2 452.2,78.2 452.2,136 442,136 442,146.2 418.2,146.2 418.2,204 408,204 408,214.2 384.2,214.2 363.8,214.2 306,214.2 306,204 295.8,204 295.8,180.2 180.2,180.2 159.8,180.2 159.8,170 170,170 170,159.8 193.8,159.8 193.8,146.2 170,146.2 170,136 159.8,136 159.8,112.2 112.2,112.2 112.2,136 102,136 102,146.2 20.4,146.2 0,146.2 0,78.2 20.4,78.2 20.4,125.8 57.8,125.8 57.8,112.2 34,112.2 34,102 23.8,102 23.8,78.2 44.2,78.2 44.2,91.8 68,91.8 68,102 78.2,102 78.2,125.8 91.8,125.8 91.8,102 102,102 102,91.8 125.8,91.8 125.8,20.4 146.2,20.4 146.2,91.8 170,91.8 170,102 180.2,102 180.2,125.8 193.8,125.8 193.8,112.2 214.2,112.2 214.2,159.8 306,159.8 306,170 316.2,170 316.2,193.8 397.8,193.8 397.8,136 408,136 408,125.8 431.8,125.8 431.8,20.4 452.2,20.4 452.2,57.8 476,57.8 476,68 486.2,68 486.2,91.8 544,91.8 544,102 554.2,102 554.2,125.8 601.8,125.8 601.8,112.2 622.2,112.2 622.2,125.8 646,125.8 646,136 656.2,136 656.2,159.8 737.8,159.8 737.8,136 748,136 748,125.8 805.8,125.8 805.8,102 816,102 816,91.8 907.8,91.8 907.8,68 918,68 918,57.8 975.8,57.8 975.8,34 986,34 986,23.8 1019.6,23.8 1019.6,20.4 792.2,20.4 792.2,34 782,34 782,44.2 724.2,44.2 724.2,68 714,68 714,78.2 690.2,78.2 690.2,102 680,102 680,112.2 622.2,112.2 601.8,112.2 601.8,102 612,102 612,91.8 669.8,91.8 669.8,68 680,68 680,57.8 703.8,57.8 703.8,34 714,34 714,23.8 771.8,23.8 771.8,20.4 452.2,20.4 431.8,20.4 316.2,20.4 316.2,34 306,34 306,44.2 282.2,44.2 282.2,68 272,68 272,78.2 248.2,78.2 248.2,102 238,102 238,112.2 214.2,112.2 193.8,112.2 193.8,102 204,102 204,91.8 227.8,91.8 227.8,68 238,68 238,57.8 261.8,57.8 261.8,34 272,34 272,23.8 295.8,23.8 295.8,20.4 146.2,20.4 125.8,20.4 112.2,20.4 112.2,34 102,34 102,44.2 78.2,44.2 78.2,68 68,68 68,78.2 44.2,78.2 23.8,78.2 20.4,78.2 0,78.2 0,20.4 20.4,20.4 20.4,57.8 57.8,57.8 57.8,34 68,34 68,23.8 91.8,23.8 91.8,20.4 20.4,20.4 0,20.4 0,0 1040,0 1040,680"/>
<polygon id="0x1aeb9140" class="l235d4" points="0,0 40,0 40,40 0,40"/>
</g>
</svg>